<svg width="184" height="50" viewBox="0 0 184 50" fill="none" xmlns="http://www.w3.org/2000/svg">
<path d="M4.32 35C3.684 35 3.366 34.682 3.366 34.046V12.752C3.366 12.116 3.684 11.798 4.32 11.798H12.996C15.984 11.798 18.156 12.482 19.512 13.85C20.88 15.218 21.564 17.396 21.564 20.384V26.414C21.564 29.402 20.88 31.58 19.512 32.948C18.156 34.316 15.984 35 12.996 35H4.32ZM5.256 33.11H12.996C14.628 33.11 15.93 32.894 16.902 32.462C17.886 32.03 18.594 31.328 19.026 30.356C19.458 29.372 19.674 28.058 19.674 26.414V20.384C19.674 18.752 19.458 17.45 19.026 16.478C18.594 15.494 17.886 14.786 16.902 14.354C15.93 13.91 14.628 13.688 12.996 13.688H5.256V33.11ZM32.8576 35C30.9856 35 29.6116 34.568 28.7356 33.704C27.8716 32.828 27.4396 31.454 27.4396 29.582C27.4396 27.71 27.8776 26.336 28.7536 25.46C29.6296 24.584 30.9976 24.146 32.8576 24.146H41.0476C41.0236 22.562 40.6636 21.458 39.9676 20.834C39.2836 20.198 38.1136 19.88 36.4576 19.88H34.3696C32.8456 19.88 31.7296 20.042 31.0216 20.366C30.3136 20.69 29.8756 21.242 29.7076 22.022C29.6236 22.322 29.5096 22.544 29.3656 22.688C29.2336 22.82 29.0176 22.886 28.7176 22.886C28.4056 22.886 28.1596 22.802 27.9796 22.634C27.8116 22.454 27.7516 22.214 27.7996 21.914C27.9556 20.546 28.5736 19.55 29.6536 18.926C30.7456 18.302 32.3176 17.99 34.3696 17.99H36.4576C38.7016 17.99 40.3396 18.512 41.3716 19.556C42.4156 20.588 42.9376 22.226 42.9376 24.47V34.046C42.9376 34.682 42.6256 35 42.0016 35C41.3656 35 41.0476 34.682 41.0476 34.046V32.264C39.8956 34.088 37.8376 35 34.8736 35H32.8576ZM32.8576 33.11H34.8736C36.0376 33.11 37.0576 32.984 37.9336 32.732C38.8216 32.468 39.5356 32.048 40.0756 31.472C40.6156 30.896 40.9396 30.128 41.0476 29.168V26.036H32.8576C31.5256 26.036 30.6016 26.294 30.0856 26.81C29.5816 27.314 29.3296 28.238 29.3296 29.582C29.3296 30.914 29.5816 31.838 30.0856 32.354C30.6016 32.858 31.5256 33.11 32.8576 33.11ZM56.2984 35C54.0904 35 52.4764 34.49 51.4564 33.47C50.4364 32.45 49.9264 30.842 49.9264 28.646V19.88H47.7844C47.1484 19.88 46.8304 19.562 46.8304 18.926C46.8304 18.302 47.1484 17.99 47.7844 17.99H49.9264V14.12C49.9264 13.484 50.2384 13.166 50.8624 13.166C51.4984 13.166 51.8164 13.484 51.8164 14.12V17.99H56.3344C56.9584 17.99 57.2704 18.302 57.2704 18.926C57.2704 19.562 56.9584 19.88 56.3344 19.88H51.8164V28.646C51.8164 30.326 52.1404 31.49 52.7884 32.138C53.4484 32.786 54.6184 33.11 56.2984 33.11C56.6464 33.11 56.8924 33.188 57.0364 33.344C57.1924 33.5 57.2704 33.734 57.2704 34.046C57.2704 34.682 56.9464 35 56.2984 35ZM66.2209 35C64.3489 35 62.9749 34.568 62.0989 33.704C61.2349 32.828 60.8029 31.454 60.8029 29.582C60.8029 27.71 61.2409 26.336 62.1169 25.46C62.9929 24.584 64.3609 24.146 66.2209 24.146H74.4109C74.3869 22.562 74.0269 21.458 73.3309 20.834C72.6469 20.198 71.4769 19.88 69.8209 19.88H67.7329C66.2089 19.88 65.0929 20.042 64.3849 20.366C63.6769 20.69 63.2389 21.242 63.0709 22.022C62.9869 22.322 62.8729 22.544 62.7289 22.688C62.5969 22.82 62.3809 22.886 62.0809 22.886C61.7689 22.886 61.5229 22.802 61.3429 22.634C61.1749 22.454 61.1149 22.214 61.1629 21.914C61.3189 20.546 61.9369 19.55 63.0169 18.926C64.1089 18.302 65.6809 17.99 67.7329 17.99H69.8209C72.0649 17.99 73.7029 18.512 74.7349 19.556C75.7789 20.588 76.3009 22.226 76.3009 24.47V34.046C76.3009 34.682 75.9889 35 75.3649 35C74.7289 35 74.4109 34.682 74.4109 34.046V32.264C73.2589 34.088 71.2009 35 68.2369 35H66.2209ZM66.2209 33.11H68.2369C69.4009 33.11 70.4209 32.984 71.2969 32.732C72.1849 32.468 72.8989 32.048 73.4389 31.472C73.9789 30.896 74.3029 30.128 74.4109 29.168V26.036H66.2209C64.8889 26.036 63.9649 26.294 63.4489 26.81C62.9449 27.314 62.6929 28.238 62.6929 29.582C62.6929 30.914 62.9449 31.838 63.4489 32.354C63.9649 32.858 64.8889 33.11 66.2209 33.11ZM132.341 35C130.133 35 128.519 34.49 127.499 33.47C126.479 32.45 125.969 30.842 125.969 28.646V19.88H123.827C123.191 19.88 122.873 19.562 122.873 18.926C122.873 18.302 123.191 17.99 123.827 17.99H125.969V14.12C125.969 13.484 126.281 13.166 126.905 13.166C127.541 13.166 127.859 13.484 127.859 14.12V17.99H132.377C133.001 17.99 133.313 18.302 133.313 18.926C133.313 19.562 133.001 19.88 132.377 19.88H127.859V28.646C127.859 30.326 128.183 31.49 128.831 32.138C129.491 32.786 130.661 33.11 132.341 33.11C132.689 33.11 132.935 33.188 133.079 33.344C133.235 33.5 133.313 33.734 133.313 34.046C133.313 34.682 132.989 35 132.341 35ZM139.25 35C138.614 35 138.296 34.682 138.296 34.046V10.97C138.296 10.346 138.614 10.034 139.25 10.034C139.874 10.034 140.186 10.346 140.186 10.97V20.492C140.726 19.664 141.494 19.034 142.49 18.602C143.498 18.17 144.794 17.954 146.378 17.954H147.746C149.99 17.954 151.628 18.476 152.66 19.52C153.704 20.564 154.226 22.208 154.226 24.452V28.502C154.226 30.746 153.704 32.39 152.66 33.434C151.628 34.478 149.99 35 147.746 35H146.378C144.794 35 143.498 34.79 142.49 34.37C141.494 33.938 140.726 33.302 140.186 32.462V34.046C140.186 34.682 139.874 35 139.25 35ZM146.378 33.11H147.746C149.462 33.11 150.656 32.774 151.328 32.102C152 31.418 152.336 30.218 152.336 28.502V24.452C152.336 22.736 151.994 21.542 151.31 20.87C150.638 20.186 149.45 19.844 147.746 19.844H146.378C144.506 19.844 143.006 20.138 141.878 20.726C140.75 21.314 140.186 22.208 140.186 23.408V29.618C140.21 30.782 140.786 31.658 141.914 32.246C143.042 32.822 144.53 33.11 146.378 33.11Z" fill="black"/>
<path d="M88.7257 35C86.4817 35 84.8377 34.484 83.7937 33.452C82.7497 32.408 82.2277 30.77 82.2277 28.538V24.47C82.2277 22.202 82.7497 20.552 83.7937 19.52C84.8377 18.476 86.4817 17.966 88.7257 17.99H91.6777C93.9217 17.99 95.5597 18.512 96.5917 19.556C97.6357 20.588 98.1577 22.226 98.1577 24.47V28.502C98.1577 30.746 97.6357 32.39 96.5917 33.434C95.5597 34.478 93.9217 35 91.6777 35H88.7257ZM84.1177 28.538C84.1177 30.23 84.4537 31.418 85.1257 32.102C85.8097 32.774 87.0097 33.11 88.7257 33.11H91.6777C93.3937 33.11 94.5877 32.774 95.2597 32.102C95.9317 31.418 96.2677 30.218 96.2677 28.502V24.47C96.2677 22.754 95.9317 21.56 95.2597 20.888C94.5877 20.216 93.3937 19.88 91.6777 19.88H88.7257C87.5737 19.868 86.6617 20.006 85.9897 20.294C85.3177 20.582 84.8377 21.062 84.5497 21.734C84.2617 22.406 84.1177 23.318 84.1177 24.47V28.538ZM110.417 35C108.173 35 106.529 34.484 105.485 33.452C104.441 32.408 103.919 30.77 103.919 28.538V24.47C103.919 22.202 104.441 20.552 105.485 19.52C106.529 18.476 108.173 17.966 110.417 17.99H113.369C115.613 17.99 117.251 18.512 118.283 19.556C119.327 20.588 119.849 22.226 119.849 24.47V28.502C119.849 30.746 119.327 32.39 118.283 33.434C117.251 34.478 115.613 35 113.369 35H110.417ZM105.809 28.538C105.809 30.23 106.145 31.418 106.817 32.102C107.501 32.774 108.701 33.11 110.417 33.11H113.369C115.085 33.11 116.279 32.774 116.951 32.102C117.623 31.418 117.959 30.218 117.959 28.502V24.47C117.959 22.754 117.623 21.56 116.951 20.888C116.279 20.216 115.085 19.88 113.369 19.88H110.417C109.265 19.868 108.353 20.006 107.681 20.294C107.009 20.582 106.529 21.062 106.241 21.734C105.953 22.406 105.809 23.318 105.809 24.47V28.538Z" fill="#C16310"/>
<line x1="83.6464" y1="20.6464" x2="88.6464" y2="15.6464" stroke="#C16310"/>
<line x1="117.61" y1="20.3123" x2="113.61" y2="15.3123" stroke="#C16310"/>
<line x1="97" y1="27.5" x2="105" y2="27.5" stroke="#C16310"/>
<path d="M52.905 47.05C52.6183 47.05 52.365 46.9917 52.145 46.875C51.9283 46.7583 51.7583 46.5967 51.635 46.39C51.515 46.1833 51.455 45.9483 51.455 45.685C51.455 45.4183 51.5167 45.1833 51.64 44.98C51.7667 44.7733 51.94 44.6117 52.16 44.495C52.3833 44.3783 52.6367 44.32 52.92 44.32C53.09 44.32 53.25 44.3417 53.4 44.385C53.55 44.4283 53.6817 44.4867 53.795 44.56C53.9117 44.6333 54.0017 44.7117 54.065 44.795C54.1283 44.8783 54.16 44.9617 54.16 45.045L54.01 45.055V43.3H54.525V47H54.01V46.31L54.11 46.335C54.11 46.415 54.0767 46.4967 54.01 46.58C53.9433 46.66 53.8533 46.7367 53.74 46.81C53.63 46.88 53.5017 46.9383 53.355 46.985C53.2117 47.0283 53.0617 47.05 52.905 47.05ZM53.005 46.585C53.205 46.585 53.3817 46.5467 53.535 46.47C53.6917 46.39 53.8133 46.2817 53.9 46.145C53.9867 46.0083 54.03 45.855 54.03 45.685C54.03 45.515 53.9867 45.3633 53.9 45.23C53.8133 45.0933 53.6917 44.985 53.535 44.905C53.3817 44.825 53.205 44.785 53.005 44.785C52.805 44.785 52.6283 44.825 52.475 44.905C52.3217 44.985 52.2 45.0933 52.11 45.23C52.0233 45.3633 51.98 45.515 51.98 45.685C51.98 45.855 52.0233 46.0083 52.11 46.145C52.2 46.2817 52.3217 46.39 52.475 46.47C52.6283 46.5467 52.805 46.585 53.005 46.585ZM57.0986 47.05C56.8186 47.05 56.5703 46.9917 56.3536 46.875C56.1403 46.755 55.9736 46.5917 55.8536 46.385C55.7336 46.1783 55.6736 45.945 55.6736 45.685C55.6736 45.4183 55.737 45.1833 55.8636 44.98C55.9903 44.7733 56.1636 44.6117 56.3836 44.495C56.6036 44.3783 56.8536 44.32 57.1336 44.32C57.307 44.32 57.467 44.3417 57.6136 44.385C57.7636 44.4283 57.892 44.4867 57.9986 44.56C58.1086 44.6333 58.1953 44.7133 58.2586 44.8C58.322 44.8867 58.357 44.975 58.3636 45.065L58.2236 45.055V44.375H58.7436V47H58.2236V46.31L58.3336 46.325C58.327 46.405 58.2886 46.4883 58.2186 46.575C58.1486 46.6583 58.057 46.7367 57.9436 46.81C57.8303 46.88 57.7003 46.9383 57.5536 46.985C57.4103 47.0283 57.2586 47.05 57.0986 47.05ZM57.2236 46.575C57.4236 46.575 57.6003 46.5367 57.7536 46.46C57.907 46.38 58.027 46.2733 58.1136 46.14C58.2003 46.0033 58.2436 45.8517 58.2436 45.685C58.2436 45.515 58.2003 45.3633 58.1136 45.23C58.027 45.0967 57.907 44.9917 57.7536 44.915C57.6003 44.8383 57.4236 44.8 57.2236 44.8C57.0236 44.8 56.847 44.8383 56.6936 44.915C56.5403 44.9917 56.4186 45.0967 56.3286 45.23C56.242 45.3633 56.1986 45.515 56.1986 45.685C56.1986 45.8517 56.242 46.0033 56.3286 46.14C56.4186 46.2733 56.5403 46.38 56.6936 46.46C56.847 46.5367 57.0236 46.575 57.2236 46.575ZM60.7006 47V43.61H61.2156V47H60.7006ZM59.9656 44.875V44.375H62.0856V44.875H59.9656ZM64.457 47.05C64.177 47.05 63.9287 46.9917 63.712 46.875C63.4987 46.755 63.332 46.5917 63.212 46.385C63.092 46.1783 63.032 45.945 63.032 45.685C63.032 45.4183 63.0954 45.1833 63.222 44.98C63.3487 44.7733 63.522 44.6117 63.742 44.495C63.962 44.3783 64.212 44.32 64.492 44.32C64.6654 44.32 64.8254 44.3417 64.972 44.385C65.122 44.4283 65.2504 44.4867 65.357 44.56C65.467 44.6333 65.5537 44.7133 65.617 44.8C65.6804 44.8867 65.7154 44.975 65.722 45.065L65.582 45.055V44.375H66.102V47H65.582V46.31L65.692 46.325C65.6854 46.405 65.647 46.4883 65.577 46.575C65.507 46.6583 65.4154 46.7367 65.302 46.81C65.1887 46.88 65.0587 46.9383 64.912 46.985C64.7687 47.0283 64.617 47.05 64.457 47.05ZM64.582 46.575C64.782 46.575 64.9587 46.5367 65.112 46.46C65.2654 46.38 65.3854 46.2733 65.472 46.14C65.5587 46.0033 65.602 45.8517 65.602 45.685C65.602 45.515 65.5587 45.3633 65.472 45.23C65.3854 45.0967 65.2654 44.9917 65.112 44.915C64.9587 44.8383 64.782 44.8 64.582 44.8C64.382 44.8 64.2054 44.8383 64.052 44.915C63.8987 44.9917 63.777 45.0967 63.687 45.23C63.6004 45.3633 63.557 45.515 63.557 45.685C63.557 45.8517 63.6004 46.0033 63.687 46.14C63.777 46.2733 63.8987 46.38 64.052 46.46C64.2054 46.5367 64.382 46.575 64.582 46.575ZM92.8246 47V43.61H93.3396V47H92.8246ZM92.0896 44.875V44.375H94.2096V44.875H92.0896ZM95.5655 47V43.3H96.0805V45.045L95.9255 45.07C95.9655 44.9467 96.0438 44.8283 96.1605 44.715C96.2771 44.6017 96.4205 44.5083 96.5905 44.435C96.7605 44.3583 96.9405 44.32 97.1305 44.32C97.3738 44.32 97.5755 44.3667 97.7355 44.46C97.8988 44.5533 98.0205 44.6833 98.1005 44.85C98.1838 45.0167 98.2255 45.21 98.2255 45.43V47H97.7105V45.5C97.7105 45.35 97.6771 45.2217 97.6105 45.115C97.5471 45.0083 97.4588 44.9267 97.3455 44.87C97.2355 44.8133 97.1071 44.785 96.9605 44.785C96.8338 44.785 96.7155 44.8083 96.6055 44.855C96.4988 44.9017 96.4055 44.9617 96.3255 45.035C96.2488 45.1083 96.1888 45.19 96.1455 45.28C96.1021 45.3667 96.0805 45.4533 96.0805 45.54V47H95.8255C95.7521 47 95.6938 47 95.6505 47C95.6071 47 95.5788 47 95.5655 47ZM101.147 47.05C100.83 47.05 100.547 46.9933 100.297 46.88C100.05 46.7633 99.8568 46.605 99.7168 46.405C99.5768 46.2017 99.5068 45.9717 99.5068 45.715C99.5068 45.4983 99.5484 45.305 99.6318 45.135C99.7151 44.965 99.8284 44.82 99.9718 44.7C100.118 44.5767 100.288 44.4817 100.482 44.415C100.678 44.3483 100.885 44.315 101.102 44.315C101.305 44.315 101.495 44.3467 101.672 44.41C101.848 44.4733 102.003 44.5617 102.137 44.675C102.27 44.7883 102.373 44.9233 102.447 45.08C102.52 45.2333 102.555 45.4033 102.552 45.59L102.547 45.84H99.9518L99.8368 45.43H102.102L102.027 45.485V45.365C102.01 45.2517 101.957 45.1517 101.867 45.065C101.777 44.9783 101.665 44.9117 101.532 44.865C101.398 44.815 101.255 44.79 101.102 44.79C100.892 44.79 100.705 44.8217 100.542 44.885C100.378 44.945 100.25 45.04 100.157 45.17C100.063 45.3 100.017 45.47 100.017 45.68C100.017 45.86 100.068 46.0183 100.172 46.155C100.275 46.2883 100.417 46.3917 100.597 46.465C100.78 46.5383 100.992 46.575 101.232 46.575C101.452 46.575 101.638 46.545 101.792 46.485C101.945 46.4217 102.08 46.35 102.197 46.27L102.432 46.65C102.338 46.7233 102.222 46.79 102.082 46.85C101.945 46.91 101.797 46.9583 101.637 46.995C101.477 47.0317 101.313 47.05 101.147 47.05ZM107.516 47.05C107.362 47.05 107.216 47.0283 107.076 46.985C106.939 46.9417 106.816 46.8867 106.706 46.82C106.596 46.7533 106.504 46.6817 106.431 46.605C106.361 46.525 106.316 46.4517 106.296 46.385L106.491 46.345V46.985H105.976V43.3H106.491V44.975L106.346 44.96C106.366 44.89 106.409 44.8183 106.476 44.745C106.546 44.6717 106.634 44.6033 106.741 44.54C106.847 44.4733 106.967 44.42 107.101 44.38C107.237 44.34 107.381 44.32 107.531 44.32C107.804 44.32 108.049 44.3783 108.266 44.495C108.482 44.6117 108.656 44.7717 108.786 44.975C108.916 45.1783 108.981 45.4133 108.981 45.68C108.981 45.9433 108.917 46.1783 108.791 46.385C108.664 46.5917 108.491 46.755 108.271 46.875C108.051 46.9917 107.799 47.05 107.516 47.05ZM107.461 46.575C107.661 46.575 107.836 46.5367 107.986 46.46C108.139 46.38 108.259 46.2733 108.346 46.14C108.436 46.0033 108.481 45.85 108.481 45.68C108.481 45.51 108.437 45.3583 108.351 45.225C108.264 45.0917 108.144 44.9867 107.991 44.91C107.837 44.8333 107.661 44.795 107.461 44.795C107.261 44.795 107.082 44.8333 106.926 44.91C106.772 44.9867 106.651 45.0917 106.561 45.225C106.474 45.3583 106.431 45.51 106.431 45.68C106.431 45.85 106.474 46.0033 106.561 46.14C106.651 46.2733 106.772 46.38 106.926 46.46C107.082 46.5367 107.261 46.575 107.461 46.575ZM111.557 47.05C111.247 47.05 110.972 46.9917 110.732 46.875C110.492 46.7583 110.303 46.5967 110.167 46.39C110.03 46.1833 109.962 45.9483 109.962 45.685C109.962 45.4183 110.03 45.1833 110.167 44.98C110.303 44.7733 110.492 44.6117 110.732 44.495C110.972 44.3783 111.247 44.32 111.557 44.32C111.863 44.32 112.137 44.3783 112.377 44.495C112.617 44.6117 112.805 44.7733 112.942 44.98C113.078 45.1833 113.147 45.4183 113.147 45.685C113.147 45.9483 113.078 46.1833 112.942 46.39C112.805 46.5967 112.617 46.7583 112.377 46.875C112.137 46.9917 111.863 47.05 111.557 47.05ZM111.557 46.58C111.757 46.58 111.938 46.5417 112.102 46.465C112.265 46.3883 112.393 46.2833 112.487 46.15C112.583 46.0133 112.628 45.8583 112.622 45.685C112.628 45.5083 112.583 45.3533 112.487 45.22C112.393 45.0867 112.265 44.9817 112.102 44.905C111.938 44.8283 111.757 44.79 111.557 44.79C111.353 44.79 111.17 44.8283 111.007 44.905C110.843 44.9817 110.715 45.0883 110.622 45.225C110.528 45.3583 110.483 45.5117 110.487 45.685C110.483 45.8583 110.528 46.0133 110.622 46.15C110.715 46.2833 110.843 46.3883 111.007 46.465C111.17 46.5417 111.353 46.58 111.557 46.58ZM116.509 47L115.454 45.855L115.364 45.755L114.109 44.375H114.839L115.784 45.48L115.874 45.58L117.219 47H116.509ZM114.049 47L115.279 45.62L115.614 45.95L114.739 47H114.049ZM115.904 45.75L115.599 45.39L116.469 44.375H117.159L115.904 45.75Z" fill="black"/>
<path d="M71.0147 47.05C70.7047 47.05 70.4297 46.9917 70.1897 46.875C69.9497 46.7583 69.7614 46.5967 69.6247 46.39C69.488 46.1833 69.4197 45.9483 69.4197 45.685C69.4197 45.4183 69.488 45.1833 69.6247 44.98C69.7614 44.7733 69.9497 44.6117 70.1897 44.495C70.4297 44.3783 70.7047 44.32 71.0147 44.32C71.3214 44.32 71.5947 44.3783 71.8347 44.495C72.0747 44.6117 72.263 44.7733 72.3997 44.98C72.5364 45.1833 72.6047 45.4183 72.6047 45.685C72.6047 45.9483 72.5364 46.1833 72.3997 46.39C72.263 46.5967 72.0747 46.7583 71.8347 46.875C71.5947 46.9917 71.3214 47.05 71.0147 47.05ZM71.0147 46.58C71.2147 46.58 71.3964 46.5417 71.5597 46.465C71.723 46.3883 71.8514 46.2833 71.9447 46.15C72.0414 46.0133 72.0864 45.8583 72.0797 45.685C72.0864 45.5083 72.0414 45.3533 71.9447 45.22C71.8514 45.0867 71.723 44.9817 71.5597 44.905C71.3964 44.8283 71.2147 44.79 71.0147 44.79C70.8114 44.79 70.628 44.8283 70.4647 44.905C70.3014 44.9817 70.173 45.0883 70.0797 45.225C69.9864 45.3583 69.9414 45.5117 69.9447 45.685C69.9414 45.8583 69.9864 46.0133 70.0797 46.15C70.173 46.2833 70.3014 46.3883 70.4647 46.465C70.628 46.5417 70.8114 46.58 71.0147 46.58ZM74.9447 47.05C74.7314 47.05 74.5431 47 74.3797 46.9C74.2164 46.8 74.0897 46.6567 73.9997 46.47C73.9097 46.2833 73.8647 46.0617 73.8647 45.805V44.375H74.3797V45.63C74.3797 45.83 74.4064 46 74.4597 46.14C74.5164 46.2767 74.6014 46.3817 74.7147 46.455C74.8314 46.525 74.9781 46.56 75.1547 46.56C75.2781 46.56 75.3931 46.5417 75.4997 46.505C75.6064 46.465 75.6997 46.4083 75.7797 46.335C75.8597 46.2617 75.9231 46.175 75.9697 46.075C76.0164 45.9717 76.0397 45.8567 76.0397 45.73V44.375H76.5547V47H76.0397V46.45L76.1297 46.39C76.0864 46.5 76.0097 46.605 75.8997 46.705C75.7931 46.805 75.6581 46.8883 75.4947 46.955C75.3347 47.0183 75.1514 47.05 74.9447 47.05ZM78.5082 47V43.61H79.0232V47H78.5082ZM77.7732 44.875V44.375H79.8932V44.875H77.7732ZM84.5547 47.05C84.2447 47.05 83.9697 46.9917 83.7297 46.875C83.4897 46.7583 83.3014 46.5967 83.1647 46.39C83.0281 46.1833 82.9597 45.9483 82.9597 45.685C82.9597 45.4183 83.0281 45.1833 83.1647 44.98C83.3014 44.7733 83.4897 44.6117 83.7297 44.495C83.9697 44.3783 84.2447 44.32 84.5547 44.32C84.8614 44.32 85.1347 44.3783 85.3747 44.495C85.6147 44.6117 85.8031 44.7733 85.9397 44.98C86.0764 45.1833 86.1447 45.4183 86.1447 45.685C86.1447 45.9483 86.0764 46.1833 85.9397 46.39C85.8031 46.5967 85.6147 46.7583 85.3747 46.875C85.1347 46.9917 84.8614 47.05 84.5547 47.05ZM84.5547 46.58C84.7547 46.58 84.9364 46.5417 85.0997 46.465C85.2631 46.3883 85.3914 46.2833 85.4847 46.15C85.5814 46.0133 85.6264 45.8583 85.6197 45.685C85.6264 45.5083 85.5814 45.3533 85.4847 45.22C85.3914 45.0867 85.2631 44.9817 85.0997 44.905C84.9364 44.8283 84.7547 44.79 84.5547 44.79C84.3514 44.79 84.1681 44.8283 84.0047 44.905C83.8414 44.9817 83.7131 45.0883 83.6197 45.225C83.5264 45.3583 83.4814 45.5117 83.4847 45.685C83.4814 45.8583 83.5264 46.0133 83.6197 46.15C83.7131 46.2833 83.8414 46.3883 84.0047 46.465C84.1681 46.5417 84.3514 46.58 84.5547 46.58ZM87.6321 47V44.27C87.6321 44.0833 87.6721 43.9183 87.7521 43.775C87.8354 43.6283 87.9504 43.5133 88.0971 43.43C88.2438 43.3467 88.4121 43.305 88.6021 43.305C88.7554 43.305 88.8888 43.3283 89.0021 43.375C89.1154 43.4217 89.2004 43.4717 89.2571 43.525L89.0821 43.95C89.0254 43.91 88.9588 43.8733 88.8821 43.84C88.8088 43.8033 88.7354 43.785 88.6621 43.785C88.5288 43.785 88.4221 43.8067 88.3421 43.85C88.2621 43.8933 88.2038 43.9533 88.1671 44.03C88.1338 44.1033 88.1171 44.1833 88.1171 44.27V47H87.8721C87.8421 47 87.8071 47 87.7671 47C87.7271 47 87.6821 47 87.6321 47ZM87.0821 44.925V44.45H89.0921V44.925H87.0821Z" fill="#C16310"/>
</svg>
